<svg width="100" height="31" viewBox="0 0 100 31" fill="none" xmlns="http://www.w3.org/2000/svg">
<g clip-path="url(#clip0)">
<path d="M56.9821 14.9455C56.9821 19.9973 53.3431 21.9842 48.3428 21.9842C46.0286 21.9842 43.753 21.612 41.8104 20.8652C42.1821 25.8348 44.7449 27.4905 49.3347 27.4905C51.7333 27.4905 53.6349 27.0772 55.0805 26.4971C56.0723 26.1248 56.3619 25.917 56.6925 25.917C56.941 25.917 57.0642 25.9992 57.0642 26.3303V28.1939C57.0642 28.6073 56.8567 28.8563 56.1955 29.1463C55.1193 29.6442 52.6818 30.512 49.1682 30.512C42.2641 30.512 38.4199 26.9515 38.4199 19.3738C38.4199 12.294 41.8104 7.65552 48.2174 7.65552C54.1707 7.6578 56.9821 10.4326 56.9821 14.9455ZM41.8104 18.1748C43.8351 18.8371 46.1106 19.1683 48.0122 19.1683C51.8154 19.1683 53.717 17.718 53.717 14.861C53.717 11.9628 51.7333 10.6382 48.2174 10.6382C44.3732 10.6405 42.141 13.3308 41.8104 18.1748Z" fill="#FF3D1D" stroke="#FF3D1D" stroke-miterlimit="10"/>
<path d="M62.5539 8.15559H64.3324C64.9526 8.15559 65.119 8.27892 65.119 8.94122V13.703C65.6571 11.6316 67.3102 7.65771 71.9821 7.65771C72.9739 7.65771 73.5941 7.78104 74.0501 7.94776C74.5882 8.15559 74.6292 8.44563 74.6292 8.77679V10.7226C74.6292 11.136 74.4628 11.2205 74.0501 11.0949C73.3889 10.887 72.7277 10.7637 72.0254 10.7637C67.0639 10.7637 65.1623 16.809 65.1213 20.4951V29.3974C65.1213 30.0597 64.9548 30.1853 64.3347 30.1853H62.5562C61.936 30.1853 61.7285 30.062 61.7285 29.3974V8.94122C61.7285 8.27892 61.9337 8.15559 62.5539 8.15559Z" fill="#FF3D1D" stroke="#FF3D1D" stroke-miterlimit="10"/>
<path d="M79.4634 8.15552H81.2418C81.862 8.15552 82.0695 8.27884 82.0695 8.94115V29.3974C82.0695 30.0597 81.862 30.1853 81.2418 30.1853H79.4634C78.8432 30.1853 78.6768 30.0619 78.6768 29.3974V8.94115C78.679 8.27884 78.8432 8.15552 79.4634 8.15552Z" fill="#FF3D1D" stroke="#FF3D1D" stroke-miterlimit="10"/>
<path d="M89.8407 8.15558L90.9146 2.40035C91.0377 1.86136 91.4117 1.73804 92.196 1.73804C93.1468 1.73804 93.1879 1.86136 93.1879 2.40035V8.15558H98.3978C98.977 8.15558 99.1412 8.2378 99.1412 8.69456V10.4348C99.1412 10.8482 98.9747 11.056 98.4389 11.056H93.1879V22.6099C93.1879 26.9583 94.4693 27.5384 96.4963 27.5384C97.6135 27.5384 98.521 27.3717 99.2255 27.0816C99.7226 26.8738 99.8867 26.9994 99.8867 27.495V29.0686C99.8867 29.4819 99.7203 29.6898 99.2666 29.8976C98.2337 30.311 96.9523 30.4366 95.753 30.4366C92.4879 30.4366 89.7996 29.2353 89.7996 23.6034V11.0538H87.2368C86.5756 11.0538 86.4502 10.9715 86.4502 10.3914V8.90011C86.4502 8.40223 86.6166 8.15558 87.1114 8.15558H89.8407Z" fill="#FF3D1D" stroke="#FF3D1D" stroke-miterlimit="10"/>
<path d="M80.2415 5.38534L77.7129 2.85258C77.64 2.7795 77.64 2.66074 77.7129 2.58537L80.2415 0.0526145C80.3145 -0.0204679 80.4331 -0.0204679 80.5083 0.0526145L83.0369 2.58537C83.1099 2.65846 83.1099 2.77722 83.0369 2.85258L80.5083 5.38534C80.4331 5.45843 80.3145 5.45843 80.2415 5.38534Z" fill="#FF3D1D"/>
<path d="M34.2857 1.00502V29.3701C34.2857 30.0324 34.1216 30.1603 33.5037 30.1603H31.8871C31.2692 30.1603 31.0594 30.0324 31.0594 29.3701V3.40761H30.4415L20.0033 27.7098C19.9896 27.7577 19.9668 27.8011 19.944 27.8422C19.9235 27.8788 19.9075 27.9153 19.8824 27.9541C19.871 27.977 19.8574 27.9975 19.8391 28.0204C19.5427 28.5182 18.9955 28.8471 18.373 28.8471C17.6206 28.8471 16.9822 28.3721 16.7382 27.7052C16.7063 27.6458 16.6766 27.575 16.6447 27.4951L7.43318 3.50809H6.67847V29.3975C6.67847 30.0598 6.4687 30.1809 5.8508 30.1809H4.23422C3.61631 30.1809 3.45215 30.0598 3.45215 29.3975V0.287904H9.28917V0.292472C9.57418 0.281052 9.71554 0.466042 9.84551 0.797196L15.393 15.2332L18.3115 23.5281C19.1551 21.2374 19.985 18.7595 20.856 16.7314C23.3208 10.9899 25.3752 6.20757 27.8399 0.468326C27.8513 0.443204 27.9106 0.326729 28.0497 0.283336C28.0611 0.278769 28.0771 0.274201 28.093 0.271917V0.260498H33.5835C34.1649 0.260498 34.2857 0.514002 34.2857 1.00502Z" fill="#FF3D1D" stroke="#FF3D1D" stroke-width="0.75" stroke-miterlimit="10"/>
<path d="M4.82037 0.291016V3.52034H0.451728C0.25108 3.52034 0.0869141 3.35591 0.0869141 3.15493V0.656427C0.0869141 0.450883 0.25108 0.291016 0.451728 0.291016H4.82037Z" fill="#FF3D1D" stroke="#FF3D1D" stroke-width="0.75" stroke-miterlimit="10"/>
</g>
<defs>
<clipPath id="clip0">
<rect width="100" height="30.6306" fill="white"/>
</clipPath>
</defs>
</svg>
